<?xml version="1.0" encoding="utf-8"?>
<!-- Generator: Adobe Illustrator 28.0.0, SVG Export Plug-In . SVG Version: 6.00 Build 0)  -->
<svg version="1.1" id="Layer_1" xmlns="http://www.w3.org/2000/svg" xmlns:xlink="http://www.w3.org/1999/xlink" x="0px" y="0px"
	 viewBox="0 0 9.4 9.4" style="enable-background:new 0 0 9.4 9.4;" xml:space="preserve">
<style type="text/css">
	.st0{fill:#EA2432;}
</style>
<path class="st0" d="M4.7,0C2.1,0,0,2.1,0,4.7c0,2.6,2.1,4.7,4.7,4.7c2.6,0,4.7-2.1,4.7-4.7C9.4,2.1,7.3,0,4.7,0z M4.5,1.7h0.4
	C5,1.7,5,1.7,5,1.8l0,3.9c0,0.1,0,0.1-0.1,0.1H4.6c-0.1,0-0.1,0-0.1-0.1l0-3.9C4.4,1.7,4.4,1.7,4.5,1.7z M4.7,7.7
	c-0.3,0-0.5-0.2-0.5-0.5c0-0.3,0.3-0.5,0.5-0.5c0.3,0,0.5,0.2,0.5,0.5C5.2,7.5,5,7.7,4.7,7.7z"/>
</svg>
